<svg width="110" height="109" viewBox="0 0 110 109" fill="none" xmlns="http://www.w3.org/2000/svg">
<path d="M54.9793 101.71C56.2475 101.71 57.4122 101.596 58.7628 101.502L61.5444 106.826C62.1358 107.957 63.193 108.507 64.4909 108.33C65.7158 108.102 66.5861 107.169 66.773 105.882L67.6242 99.9557C70.0149 99.3115 72.4161 98.3971 74.7646 97.4299L79.1239 101.353C80.0786 102.235 81.2393 102.411 82.4643 101.768C83.5435 101.125 83.9998 100.005 83.7505 98.7076L82.4949 92.8645C84.5012 91.42 86.5382 89.8297 88.3153 88.0208L93.7953 90.3146C94.9883 90.8331 96.1593 90.5437 97.0943 89.4328C97.9153 88.5193 97.9453 87.2963 97.2703 86.1959L94.1253 81.1206C95.5913 79.0731 96.7663 76.8798 97.8573 74.5313L103.835 74.8323C105.112 74.8946 106.169 74.1691 106.584 73.0064C107.01 71.7919 106.616 70.5689 105.64 69.8318L100.939 66.085C101.604 63.7049 102.102 61.2413 102.3 58.612L107.925 56.8062C109.202 56.3806 109.917 55.4681 109.917 54.1502C109.917 52.8322 109.202 51.9197 107.925 51.4942L102.3 49.6883C102.102 47.059 101.593 44.6472 100.939 42.2153L105.64 38.4685C106.595 37.7419 106.989 36.5812 106.584 35.3562C106.169 34.1936 105.112 33.468 103.835 33.5303L97.8573 33.769C96.7563 31.4099 95.5913 29.279 94.1253 27.1798L97.2703 22.1045C97.9353 21.0665 97.9043 19.8434 97.0943 18.9299C96.1593 17.819 94.9883 17.5813 93.7953 18.0481L88.3153 20.2795C86.5382 18.533 84.5012 16.891 82.4949 15.4464L83.7505 9.65515C83.9998 8.30555 83.5435 7.18605 82.4643 6.59465C81.2393 5.94095 80.0891 6.06555 79.1239 6.99915L74.7646 10.8705C72.4161 9.86215 70.0149 9.05114 67.6242 8.35524L66.773 2.48055C66.5861 1.19325 65.7053 0.260643 64.4803 0.0325432C63.193 -0.143857 62.0841 0.405349 61.5444 1.47405L58.7628 6.80915C57.4122 6.72575 56.2475 6.65295 54.9793 6.65295C53.6287 6.65295 52.4746 6.72575 51.1652 6.80915L48.3318 1.47405C47.7922 0.405349 46.7245 -0.143857 45.3854 0.0325432C44.1604 0.260643 43.3419 1.19325 43.155 2.48055L42.3038 8.34475C39.8614 9.05115 37.4602 9.85155 35.1634 10.8705L30.7524 7.00965C29.7871 6.06555 28.6265 5.95145 27.412 6.59465C26.3845 7.18605 25.8765 8.30555 26.1775 9.65515L27.3814 15.4464C25.3751 16.891 23.3381 18.533 21.5609 20.2795L16.1223 18.0481C14.8878 17.5813 13.7683 17.819 12.8337 18.9299C12.0238 19.8434 11.9308 21.0664 12.5951 22.0939L15.7505 27.1798C14.3471 29.279 13.1201 31.4099 12.0188 33.769L6.04054 33.5303C4.76384 33.468 3.71714 34.1936 3.29164 35.3562C2.90724 36.5812 3.25994 37.6691 4.28744 38.4685L8.93724 42.2153C8.32374 44.6472 7.81474 47.059 7.61724 49.6778L1.95054 51.4942C0.72555 51.9197 0 52.8217 0 54.1502C0 55.4787 0.72555 56.3806 1.95054 56.8062L7.61724 58.6225C7.81474 61.2413 8.31314 63.7049 8.93724 66.085L4.28744 69.8318C3.27054 70.5584 2.91774 71.7708 3.29164 73.0064C3.70664 74.1691 4.76384 74.8946 6.04054 74.8323L12.0188 74.5313C13.1096 76.8798 14.3471 79.0731 15.7399 81.1206L12.6056 86.1959C11.9308 87.2963 12.0132 88.5193 12.8337 89.4328C13.7683 90.5437 14.8878 90.8331 16.1223 90.3146L21.5609 88.0208C23.3381 89.8297 25.3751 91.42 27.3814 92.8645L26.1775 98.7076C25.9283 100.005 26.3845 101.125 27.412 101.768C28.637 102.411 29.7871 102.235 30.7524 101.353L35.1529 97.4299C37.4602 98.3971 39.8614 99.3115 42.3038 99.9662L43.155 105.882C43.3419 107.169 44.1604 108.102 45.396 108.33C46.7245 108.507 47.7404 107.957 48.3318 106.826L51.1652 101.502C52.4535 101.596 53.6287 101.71 54.9793 101.71ZM54.9793 94.2809C32.624 94.2809 15.327 76.4547 15.327 54.2019C15.327 31.8974 32.624 14.0818 54.9793 14.0818C77.2934 14.0818 94.6013 31.8974 94.6013 54.2019C94.6013 76.4547 77.2934 94.2809 54.9793 94.2809ZM46.3999 46.1646L51.8304 42.7142L35.2609 14.4149L29.6856 17.6065L46.3999 46.1646ZM66.2726 57.289H99.2453L99.1943 50.9882H66.2726V57.289ZM51.9159 65.7097L46.4958 62.2076L29.1998 90.5587L34.7339 93.8538L51.9159 65.7097ZM54.8557 67.0603C61.9439 67.0603 67.6106 61.3418 67.6106 54.2537C67.6106 47.1549 61.9439 41.447 54.8557 41.447C47.757 41.447 42.0385 47.1549 42.0385 54.2537C42.0385 61.3418 47.757 67.0603 54.8557 67.0603ZM54.8557 60.1384C51.539 60.1384 48.9192 57.5598 48.9192 54.2537C48.9192 50.937 51.539 48.3689 54.8557 48.3689C58.1619 48.3689 60.7299 50.937 60.7299 54.2537C60.7299 57.5598 58.1619 60.1384 54.8557 60.1384Z" fill="white"/>
</svg>
